{"title":"The Duel 2016 Movies HDRip XviD ESubs New Source +Sample ~ ☻rDX☻","uid":15077411,"size":739167720,"categoryP":"video","categoryS":"movies","magnet":"?xt=urn:btih:95b07e9e0f7f6c1680be30667074196e81c0954d&amp;dn=The+Duel+2016+Movies+HDRip+XviD+ESubs+New+Source+%2BSample+%7E+%E2%98%BBrDX%E2%98%BB&amp;tr=udp%3A%2F%2Ftracker.leechers-paradise.org%3A6969&amp;tr=udp%3A%2F%2Fzer0day.ch%3A1337&amp;tr=udp%3A%2F%2Fopen.demonii.com%3A1337&amp;tr=udp%3A%2F%2Ftracker.coppersurfer.tk%3A6969&amp;tr=udp%3A%2F%2Fexodus.desync.com%3A6969","seeders":1,"leechers":0,"uploader":"basicssom","files":3,"time":1466840952,"description":"----------------------------------------------------------------\r\nThe Duel 2016 English Movies HDRip XviD ESubs AAC New Source with Sample ☻rDX☻\r\n\r\nSCREEN SHOTS &amp; POSTER:\r\n  \nhttp://mobileshosting.com/2016/6/revenue/index.htm  \nhttp://mobileshosting.com/2016/6/revenue/1.html  \nhttp://mobileshosting.com/2016/6/revenue/2.html  \nhttp://mobileshosting.com/2016/6/revenue/3.html  \nhttp://mobileshosting.com/2016/6/revenue/4.html  \nhttp://mobileshosting.com/2016/6/revenue/5.html  \nhttp://mobileshosting.com/2016/6/revenue/6.html  \nhttp://mobileshosting.com/2016/6/revenue/7.html  \nhttp://mobileshosting.com/2016/6/revenue/8.html  \nhttp://mobileshosting.com/2016/6/revenue/9.html  \nhttp://mobileshosting.com/2016/6/revenue/10.html\r\n\r\nFormat                                   : Matroska\r\nFormat version                           : Version 4 / Version 2\r\nFile size                                : 693 MiB\r\nDuration                                 : 1h 50mn\r\nOverall bit rate                         : 879 Kbps\r\nMovie name                               : The Duel 2016 English Movies HDRip XviD ESubs AAC New Source ☻rDX☻\r\n\r\nVideo\r\nID                                       : 1\r\nFormat                                   : MPEG-4 Visual\r\nFormat profile                           : Advanced   \r\nFormat settings, BVOP                    : Yes\r\nFormat settings, QPel                    : No\r\nFormat settings, GMC                     : No warppoints\r\nFormat settings, Matrix                  : Default (H.263)\r\nCodec ID                                 : V_MS/VFW/FOURCC / XVID\r\nCodec ID/Hint                            : XviD\r\nDuration                                 : 1h 50mn\r\nBit rate                                 : 750 Kbps\r\nWidth                                    : 640 pixels\r\nHeight                                   : 272 pixels\r\nDisplay aspect ratio                     : 2.35:1\r\nFrame rate mode                          : Constant\r\nFrame rate                               : 23.976 fps\r\nColor space                              : YUV\r\nChroma subsampling                       : 4:2:0\r\nBit depth                                : 8 bits\r\nScan type                                : Progressive\r\nCompression mode                         : Lossy\r\nBits/(Pixel*Frame)                       : 0.180\r\nStream size                              : 591 MiB (85%)\r\nTitle                                    : ☻rDX☻\r\nWriting library                          : XviD 65\r\nDefault                                  : Yes\r\nForced                                   : No\r\n\r\nAudio\r\nID                                       : 2\r\nFormat                                   : MPEG Audio\r\nFormat version                           : Version 1\r\nFormat profile                           : Layer 3\r\nMode                                     : Joint stereo\r\nMode extension                           : MS Stereo\r\nCodec ID                                 : A_MPEG/L3\r\nCodec ID/Hint                            : MP3\r\nDuration                                 : 1h 50mn\r\nBit rate mode                            : Constant\r\nBit rate                                 : 112 Kbps\r\nChannel(s)                               : 2 channels\r\nSampling rate                            : 48.0 KHz\r\nCompression mode                         : Lossy\r\nStream size                              : 88.2 MiB (13%)\r\nTitle                                    : ☻rDX☻\r\nWriting library                          : LAME3.99r\r\nEncoding settings                        : -m j -V 4 -q 3 -lowpass 15.6 -b 112\r\nDefault                                  : Yes\r\nForced                                   : No\r\n\r\nIMDB \nhttp://www.imdb.com/title/tt2436682/","torrent":{"xt":"urn:btih:95b07e9e0f7f6c1680be30667074196e81c0954d","amp;dn":"The+Duel+2016+Movies+HDRip+XviD+ESubs+New+Source+%2BSample+%7E+%E2%98%BBrDX%E2%98%BB","amp;tr":["udp%3A%2F%2Ftracker.leechers-paradise.org%3A6969","udp%3A%2F%2Fzer0day.ch%3A1337","udp%3A%2F%2Fopen.demonii.com%3A1337","udp%3A%2F%2Ftracker.coppersurfer.tk%3A6969","udp%3A%2F%2Fexodus.desync.com%3A6969"],"infoHash":"95b07e9e0f7f6c1680be30667074196e81c0954d","infoHashBuffer":{"type":"Buffer","data":[149,176,126,158,15,127,108,22,128,190,48,102,112,116,25,110,129,192,149,77]},"announce":[],"urlList":[]}}